# xmcd CD database file
#
# Track frame offsets:
#	183
#	12050
#	22003
#	33370
#	45503
#	56660
#	65783
#	76430
#	87725
#	97418
#	108283
#	117640
#	126575
#	134170
#	144758
#	153835
#	162350
#	171545
#
# Disc length: 2408 seconds
#
# Revision: 2
# Processed by: cddbd v1.5.1PL0 Copyright (c) Steve Scherf et al.
# Submitted via: CDex 1.51
#
DISCID=0a096612
DTITLE=Fats Domino - Blueberry Hill
DYEAR=1900
DGENRE=Rock and Roll
TTITLE0=The Fat Man
TTITLE1=Goin' Home
TTITLE2=Goin' To The River
TTITLE3=Please Don't Leave Me
TTITLE4=Ain't That A Shame
TTITLE5=I'm In Love Again
TTITLE6=When My Dream Boat Comes Home
TTITLE7=Blueberry Hill
TTITLE8=So Long
TTITLE9=Blue Monday
TTITLE10=I'm Walking
TTITLE11=Valley Of Tears
TTITLE12=Whole Lotta Lovin
TTITLE13=I Want To Walk You Home
TTITLE14=Be My Guest
TTITLE15=Walking To New Orleans
TTITLE16=My Girl Josephine
TTITLE17=Let The Four Winds Blow
EXTD=
EXTT0=
EXTT1=
EXTT2=
EXTT3=
EXTT4=
EXTT5=
EXTT6=
EXTT7=
EXTT8=
EXTT9=
EXTT10=
EXTT11=
EXTT12=
EXTT13=
EXTT14=
EXTT15=
EXTT16=
EXTT17=
PLAYORDER=
